<svg width="555" height="545" viewBox="0 0 555 545" fill="none" xmlns="http://www.w3.org/2000/svg">
<path fill-rule="evenodd" clip-rule="evenodd" d="M161 96L10 9.99999L10.4949 9.13104L161.495 95.131L161 96Z" fill="white"/>
<path fill-rule="evenodd" clip-rule="evenodd" d="M215 187L161 96L161.86 95.4897L215.86 186.49L215 187Z" fill="white"/>
<path fill-rule="evenodd" clip-rule="evenodd" d="M286 317L215 187L215.878 186.521L286.878 316.521L286 317Z" fill="white"/>
<path fill-rule="evenodd" clip-rule="evenodd" d="M236 414L286 317L286.889 317.458L236.889 414.458L236 414Z" fill="white"/>
<path fill-rule="evenodd" clip-rule="evenodd" d="M545 435L286 317L286.415 316.09L545.415 434.09L545 435Z" fill="white"/>
<path fill-rule="evenodd" clip-rule="evenodd" d="M406 535L236 414L236.58 413.185L406.58 534.185L406 535Z" fill="white"/>
<path fill-rule="evenodd" clip-rule="evenodd" d="M545 435L406 535L405.416 534.188L544.416 434.188L545 435Z" fill="white"/>
<path d="M20 10C20 15.5228 15.5228 20 10 20C4.47715 20 0 15.5228 0 10C0 4.47715 4.47715 0 10 0C15.5228 0 20 4.47715 20 10Z" fill="white"/>
<path d="M181 96C181 107.046 172.046 116 161 116C149.954 116 141 107.046 141 96C141 84.9543 149.954 76 161 76C172.046 76 181 84.9543 181 96Z" fill="#036CCA"/>
<path d="M225 187C225 192.523 220.523 197 215 197C209.477 197 205 192.523 205 187C205 181.477 209.477 177 215 177C220.523 177 225 181.477 225 187Z" fill="white"/>
<path d="M296 317C296 322.523 291.523 327 286 327C280.477 327 276 322.523 276 317C276 311.477 280.477 307 286 307C291.523 307 296 311.477 296 317Z" fill="white"/>
<path d="M246 414C246 419.523 241.523 424 236 424C230.477 424 226 419.523 226 414C226 408.477 230.477 404 236 404C241.523 404 246 408.477 246 414Z" fill="white"/>
<path d="M416 535C416 540.523 411.523 545 406 545C400.477 545 396 540.523 396 535C396 529.477 400.477 525 406 525C411.523 525 416 529.477 416 535Z" fill="white"/>
<path d="M555 435C555 440.523 550.523 445 545 445C539.477 445 535 440.523 535 435C535 429.477 539.477 425 545 425C550.523 425 555 429.477 555 435Z" fill="white"/>
</svg>
